<svg width="275" height="73" viewBox="0 0 275 73" fill="none" xmlns="http://www.w3.org/2000/svg">
<path d="M53.8564 2.67773C54.2023 2.90915 54.6632 3.31368 55.2188 3.94043C56.3274 5.1912 57.5856 7.06349 58.8496 9.39258C61.3726 14.0416 63.7235 20.1492 64.8926 25.8584L65.1152 26.9434L66.0684 27.5078C70.6979 30.2504 73.1165 33.4525 74.4385 36.9033C75.7976 40.4512 76.0654 44.4297 76.0654 48.8662C76.0654 56.654 72.2897 61.9047 65.875 65.3564C59.2931 68.898 49.9529 70.5 39.2832 70.5C28.6133 70.5 19.2724 68.8982 12.6904 65.3564C6.27577 61.9047 2.5 56.654 2.5 48.8662C2.50003 44.7594 3.50469 40.35 5.3623 36.5615C7.22658 32.7595 9.85341 29.769 12.9668 28.21L13.9756 27.7051L14.2646 26.6133C15.9643 20.1782 18.5414 13.8678 21.0508 9.20312C22.3098 6.86272 23.5103 5.01424 24.5244 3.78906C24.8882 3.34961 25.1988 3.02756 25.4492 2.80176C25.7561 3.12391 26.1357 3.58448 26.5742 4.19531C27.6621 5.7106 28.8879 7.80177 30.0664 9.99219C31.2358 12.1658 32.3206 14.3672 33.127 16.0664C33.5296 16.9148 33.8611 17.6325 34.0957 18.1533C34.3679 18.7575 34.442 18.9482 34.417 18.873C34.5062 19.1407 34.6901 19.5504 35.0762 19.9238C35.4999 20.3336 36.0435 20.5784 36.6133 20.6328C37.5636 20.7236 38.2304 20.2613 38.3682 20.167C38.6312 19.9868 38.8497 19.7667 39.0039 19.5967C39.4221 19.835 39.8342 20.0007 40.1807 20.1162C41.3502 20.5061 42.5116 20.583 42.8164 20.583C43.8258 20.583 44.4424 19.9846 44.5049 19.9277C44.6858 19.763 44.8029 19.6084 44.8486 19.5459C44.9511 19.4059 45.0195 19.2806 45.0449 19.2344C45.1075 19.1205 45.1622 19.0049 45.1982 18.9268C45.2774 18.7551 45.3756 18.5287 45.4805 18.2812C45.6848 17.799 45.9989 17.0397 46.3408 16.2285C47.0497 14.5464 48.0047 12.3311 49.0684 10.1279C50.142 7.90399 51.2824 5.78533 52.3496 4.25488C52.8872 3.48402 53.3405 2.95856 53.6885 2.65137C53.7064 2.63556 53.7241 2.62111 53.7402 2.60742C53.7744 2.62798 53.8142 2.64946 53.8564 2.67773Z" fill="#1E1E1E" stroke="#FDFFF7" stroke-width="5"/>
<ellipse cx="56.5342" cy="44.0633" rx="11.2237" ry="11.2237" fill="#D3FF2E"/>
<ellipse cx="56.742" cy="43.8555" rx="3.94907" ry="3.94907" fill="#1E1E1E"/>
<ellipse cx="24.9415" cy="44.0633" rx="11.2237" ry="11.2237" fill="#FDFFF7"/>
<ellipse cx="25.1498" cy="43.8555" rx="3.94907" ry="3.94907" fill="#1E1E1E"/>
<g clip-path="url(#clip0_15_436)">
<path d="M112.268 62.436C111.799 62.5213 111.201 62.4573 110.476 62.244C109.793 61.988 109.111 61.6253 108.428 61.156C107.745 60.644 107.148 60.0467 106.636 59.364C106.167 58.6813 105.911 57.9133 105.868 57.06C105.825 56.2067 106.081 55.3107 106.636 54.372C107.873 52.6227 109.004 50.9587 110.028 49.38C111.095 47.7587 112.183 46.0947 113.292 44.388C114.444 42.6387 115.703 40.7187 117.068 38.628C118.433 36.4947 120.033 34.0627 121.868 31.332C120.801 31.0333 119.415 31.012 117.708 31.268C116.001 31.524 114.316 31.8013 112.652 32.1C112.652 32.1 112.439 32.1 112.012 32.1C111.585 32.1 111.052 32.0573 110.412 31.972C109.772 31.8867 109.111 31.6947 108.428 31.396C107.788 31.0973 107.255 30.628 106.828 29.988C106.145 29.0067 105.719 28.1533 105.548 27.428C105.42 26.7027 105.441 26.1053 105.612 25.636C105.783 25.124 106.017 24.7187 106.316 24.42C106.657 24.1213 106.956 23.908 107.212 23.78C107.468 23.652 107.596 23.588 107.596 23.588C111.18 21.9667 114.956 21.1133 118.924 21.028C122.892 20.9427 126.796 21.3907 130.636 22.372C131.404 22.7133 132.172 23.2253 132.94 23.908C133.708 24.5907 134.369 25.4227 134.924 26.404C135.479 27.3853 135.799 28.4733 135.884 29.668C135.969 30.8627 135.671 32.1427 134.988 33.508C133.964 35.3 133.089 36.8147 132.364 38.052C131.639 39.2893 130.977 40.3987 130.38 41.38C129.825 42.3187 129.228 43.2573 128.588 44.196C127.991 45.1347 127.265 46.18 126.412 47.332C125.601 48.484 124.599 49.892 123.404 51.556L130.124 51.3C130.124 51.3 130.401 51.364 130.956 51.492C131.553 51.5773 132.236 51.7907 133.004 52.132C133.772 52.4307 134.476 52.8787 135.116 53.476C135.799 54.0733 136.225 54.8627 136.396 55.844C136.652 57.0387 136.609 57.9987 136.268 58.724C135.927 59.4493 135.479 60.004 134.924 60.388C134.369 60.772 133.857 61.028 133.388 61.156C132.961 61.2413 132.748 61.284 132.748 61.284L112.268 62.436ZM152.802 63.204C149.986 62.6493 147.682 61.8173 145.89 60.708C144.141 59.556 142.775 58.2333 141.794 56.74C140.855 55.204 140.194 53.5827 139.81 51.876C139.469 50.1693 139.277 48.4627 139.234 46.756C139.191 44.4947 139.554 42.3613 140.322 40.356C141.133 38.308 142.285 36.516 143.778 34.98C145.271 33.444 147.042 32.2707 149.09 31.46C151.181 30.6067 153.463 30.2653 155.938 30.436C158.455 30.6067 160.567 31.0973 162.274 31.908C163.981 32.7187 165.346 33.7213 166.37 34.916C167.394 36.1107 168.141 37.3907 168.61 38.756C169.079 40.1213 169.335 41.444 169.378 42.724C169.421 44.7293 168.887 46.6067 167.778 48.356C166.711 50.1053 164.834 51.3213 162.146 52.004C161.463 52.1747 160.695 52.2813 159.842 52.324C158.989 52.3667 158.114 52.388 157.218 52.388C156.322 52.388 155.447 52.3667 154.594 52.324C153.741 52.2387 152.973 52.1747 152.29 52.132C151.65 52.0467 151.117 51.9827 150.69 51.94C150.306 51.8973 150.114 51.876 150.114 51.876C150.285 52.0893 150.541 52.4307 150.882 52.9C151.223 53.3267 151.757 53.7107 152.482 54.052C153.207 54.3933 154.21 54.5427 155.49 54.5C157.154 54.4147 158.498 54.3293 159.522 54.244C160.546 54.1587 161.335 54.0947 161.89 54.052C162.445 53.9667 162.807 53.9027 162.978 53.86C163.191 53.8173 163.298 53.796 163.298 53.796C163.298 53.796 163.469 53.796 163.81 53.796C164.194 53.796 164.663 53.8387 165.218 53.924C165.815 54.0093 166.413 54.2227 167.01 54.564C167.607 54.8627 168.119 55.332 168.546 55.972C169.058 56.6973 169.293 57.3587 169.25 57.956C169.207 58.5107 169.058 59.0013 168.802 59.428C168.546 59.8547 168.269 60.1747 167.97 60.388C167.714 60.6013 167.586 60.708 167.586 60.708C167.586 60.708 167.138 60.9 166.242 61.284C165.389 61.668 164.237 62.0733 162.786 62.5C161.378 62.9267 159.799 63.2253 158.05 63.396C156.301 63.6093 154.551 63.5453 152.802 63.204ZM150.498 44.452L157.09 44.388C157.09 44.388 157.154 44.388 157.282 44.388C157.453 44.3453 157.666 44.3027 157.922 44.26C158.178 44.1747 158.413 44.068 158.626 43.94C158.882 43.7693 159.074 43.556 159.202 43.3C159.373 43.0013 159.458 42.6387 159.458 42.212C159.458 41.5293 159.309 40.9533 159.01 40.484C158.754 40.0147 158.306 39.6733 157.666 39.46C157.069 39.2467 156.215 39.1827 155.106 39.268C154.466 39.3107 153.847 39.524 153.25 39.908C152.695 40.292 152.183 40.7613 151.714 41.316C151.287 41.8707 150.946 42.4467 150.69 43.044C150.477 43.5987 150.413 44.068 150.498 44.452ZM199.821 62.052C198.413 61.668 197.368 61.092 196.685 60.324C196.002 59.5133 195.554 58.6813 195.341 57.828C195.128 56.9747 195.021 56.2493 195.021 55.652C195.064 55.012 195.085 54.692 195.085 54.692C195.426 52.5587 195.554 50.4253 195.469 48.292C195.384 46.116 194.978 44.388 194.253 43.108C193.698 42.212 192.909 41.6573 191.885 41.444C190.904 41.2307 189.858 41.316 188.749 41.7C187.64 42.084 186.637 42.7453 185.741 43.684C184.888 44.58 184.312 45.6253 184.013 46.82C183.757 47.972 183.629 49.1027 183.629 50.212C183.629 51.3213 183.586 52.2173 183.501 52.9C183.458 53.796 183.416 54.4573 183.373 54.884C183.373 55.3107 183.373 55.652 183.373 55.908C183.416 56.164 183.394 56.5267 183.309 56.996C183.309 56.996 183.288 57.188 183.245 57.572C183.245 57.9133 183.138 58.34 182.925 58.852C182.712 59.3213 182.306 59.748 181.709 60.132C181.112 60.516 180.216 60.7507 179.021 60.836C178.082 60.8787 177.229 60.644 176.461 60.132C175.736 59.5773 175.16 59.044 174.733 58.532C174.306 57.9773 174.093 57.7 174.093 57.7C173.709 57.188 173.474 56.676 173.389 56.164C173.304 55.6093 173.261 54.9267 173.261 54.116C173.304 53.2627 173.282 52.1533 173.197 50.788C172.941 49.0813 172.792 47.6947 172.749 46.628C172.706 45.5613 172.749 44.644 172.877 43.876C173.048 43.108 173.325 42.3613 173.709 41.636C174.093 40.868 174.626 39.972 175.309 38.948C176.29 37.7533 177.506 36.6013 178.957 35.492C180.45 34.3827 182.072 33.444 183.821 32.676C185.57 31.8653 187.362 31.332 189.197 31.076C191.032 30.82 192.781 30.9267 194.445 31.396C195.384 31.652 196.45 32.0573 197.645 32.612C198.84 33.124 200.034 33.892 201.229 34.916C202.466 35.8973 203.597 37.1987 204.621 38.82C205.645 40.4413 206.477 42.4467 207.117 44.836C207.586 46.8413 207.821 48.7827 207.821 50.66C207.821 52.5373 207.608 54.8627 207.181 57.636C207.181 57.636 207.117 57.9347 206.989 58.532C206.861 59.1293 206.562 59.7907 206.093 60.516C205.624 61.1987 204.898 61.732 203.917 62.116C202.936 62.5 201.57 62.4787 199.821 62.052ZM178.829 62.436C177.677 62.3507 176.717 62.0947 175.949 61.668C175.181 61.1987 174.562 60.6653 174.093 60.068C173.624 59.4707 173.282 58.9587 173.069 58.532C172.898 58.1053 172.813 57.892 172.813 57.892C172.557 55.588 172.365 53.54 172.237 51.748C172.152 49.956 172.109 48.2493 172.109 46.628C172.109 44.964 172.152 43.172 172.237 41.252C172.365 39.332 172.536 37.092 172.749 34.532C172.749 34.532 172.792 34.3187 172.877 33.892C173.005 33.4653 173.24 32.996 173.581 32.484C173.922 31.9293 174.477 31.46 175.245 31.076C176.013 30.6493 177.037 30.4573 178.317 30.5C179.725 30.5427 180.834 30.8413 181.645 31.396C182.456 31.9507 183.053 32.5907 183.437 33.316C183.864 33.9987 184.141 34.6173 184.269 35.172C184.397 35.684 184.461 35.94 184.461 35.94C184.333 37.988 184.226 39.844 184.141 41.508C184.098 43.172 184.077 44.8147 184.077 46.436C184.077 48.0573 184.098 49.8067 184.141 51.684C184.184 53.5187 184.269 55.6307 184.397 58.02C184.397 58.02 184.354 58.2547 184.269 58.724C184.184 59.1933 183.97 59.748 183.629 60.388C183.288 60.9853 182.733 61.4973 181.965 61.924C181.24 62.3507 180.194 62.5213 178.829 62.436ZM227.764 62.564C225.289 62.564 222.985 62.1587 220.852 61.348C218.761 60.5373 216.927 59.428 215.348 58.02C213.812 56.5693 212.596 54.9053 211.7 53.028C210.847 51.1507 210.42 49.1453 210.42 47.012C210.42 44.8787 210.825 42.8307 211.636 40.868C212.489 38.8627 213.663 37.092 215.156 35.556C216.692 33.9773 218.484 32.74 220.532 31.844C222.623 30.948 224.905 30.5 227.38 30.5C229.855 30.5 232.18 30.82 234.356 31.46C236.532 32.1 238.452 33.0813 240.116 34.404C241.78 35.7267 243.081 37.3907 244.02 39.396C244.959 41.4013 245.428 43.7693 245.428 46.5C245.428 48.6333 244.98 50.6813 244.084 52.644C243.188 54.564 241.929 56.2707 240.308 57.764C238.687 59.2573 236.809 60.4307 234.676 61.284C232.543 62.1373 230.239 62.564 227.764 62.564ZM227.508 51.94C228.233 51.94 228.916 51.7907 229.556 51.492C230.239 51.1933 230.836 50.7667 231.348 50.212C231.86 49.6573 232.265 49.0387 232.564 48.356C232.863 47.6733 233.012 46.948 233.012 46.18C233.012 44.8573 232.799 43.7907 232.372 42.98C231.945 42.1267 231.348 41.508 230.58 41.124C229.855 40.6973 229.001 40.484 228.02 40.484C227.295 40.484 226.612 40.676 225.972 41.06C225.375 41.4013 224.841 41.8707 224.372 42.468C223.903 43.0653 223.519 43.7267 223.22 44.452C222.964 45.1773 222.836 45.924 222.836 46.692C222.836 47.716 223.028 48.6333 223.412 49.444C223.796 50.212 224.329 50.8307 225.012 51.3C225.737 51.7267 226.569 51.94 227.508 51.94Z" fill="#D3FF2E"/>
</g>
<defs>
<clipPath id="clip0_15_436">
<path d="M76 33C76 19.1929 87.1929 8 101 8L250 8C263.807 8 275 19.1929 275 33V72L76 72V33Z" fill="white"/>
</clipPath>
</defs>
</svg>
